<svg width="117" height="117" viewBox="0 0 117 117" fill="none" xmlns="http://www.w3.org/2000/svg">
<rect x="0.5" y="0.5" width="116" height="116" rx="58" stroke="#001F31"/>
<path d="M56.7896 65.5001L56.7972 65.5C73.0031 65.2522 85.0689 71.8141 93.0926 78.4478C97.1051 81.7652 100.104 85.0983 102.098 87.6007C103.095 88.8516 103.84 89.894 104.335 90.622C104.583 90.9859 104.768 91.2712 104.89 91.4644C104.896 91.474 104.902 91.4834 104.908 91.4925C104.904 91.4977 104.901 91.503 104.897 91.5084C104.775 91.6908 104.591 91.96 104.345 92.3036C103.853 92.9908 103.113 93.975 102.126 95.156C100.152 97.5184 97.1922 100.665 93.2558 103.796C85.384 110.058 73.6186 116.248 58.0082 116C42.3914 115.752 30.7432 109.681 22.9941 103.667C19.1188 100.66 16.2207 97.669 14.2929 95.4315C13.3291 94.3129 12.6084 93.3833 12.1298 92.7352C11.8905 92.4112 11.7117 92.1576 11.5935 91.986C11.5802 91.9667 11.5677 91.9485 11.556 91.9314C11.5628 91.9133 11.57 91.8941 11.5776 91.8739C11.65 91.6827 11.7619 91.3996 11.9178 91.0376C12.2296 90.3136 12.7173 89.2747 13.4173 88.0257C14.8174 85.5273 17.0649 82.1921 20.4497 78.8561C27.2096 72.1937 38.5326 65.5 56.7896 65.5001Z" stroke="#001F31"/>
<circle cx="59" cy="35" r="23.5" stroke="#001F31"/>
</svg>
